<svg width="39" height="40" viewBox="0 0 39 40" fill="none" xmlns="http://www.w3.org/2000/svg">
<path d="M38.5093 7H28.1927V31.9945H38.5093V7Z" fill="white"/>
<path fill-rule="evenodd" clip-rule="evenodd" d="M26.1076 25.5211C26.1076 31.3624 21.9867 33 13.1764 33C3.86947 33 0 31.2184 0 25.2373V24.0899H11.6125V26.512C11.6125 27.2234 11.6949 27.8659 12.8488 27.8659C13.8378 27.8659 14.085 27.5092 14.085 26.5829V25.6567C14.085 24.0899 13.1784 24.019 10.5432 23.4495C2.22319 21.67 0 19.6798 0 15.2592V14.335C0 9.2781 5.5178 7 12.9291 7C23.1426 7 25.7037 9.56182 25.7037 14.4059V16.1854H14.7402V13.2648C14.7402 12.6953 14.3282 12.1967 13.504 12.1967C12.9271 12.1967 12.2677 12.5513 12.2677 13.2648V14.189C12.2677 15.6847 13.1743 16.1833 15.5644 16.6924C23.5547 18.33 26.1076 20.0302 26.1076 24.1713V25.5211Z" fill="white"/>
</svg>
