<?xml version="1.0" encoding="utf-8"?>
<!-- Generator: Adobe Illustrator 24.0.1, SVG Export Plug-In . SVG Version: 6.00 Build 0)  -->
<svg version="1.1" id="Layer_1" xmlns="http://www.w3.org/2000/svg" xmlns:xlink="http://www.w3.org/1999/xlink" x="0px" y="0px"
	 viewBox="0 0 250 70" style="enable-background:new 0 0 250 70;" xml:space="preserve">
<style type="text/css">
	.st0{fill-rule:evenodd;clip-rule:evenodd;fill:#FFFFFF;}
</style>
<path class="st0" d="M13.04,31.97c-1.85-0.4-2.55-0.79-2.55-1.98v-0.73c0-0.56,0.51-0.85,0.96-0.85c0.64,0,0.96,0.4,0.96,0.85v2.32
	h8.48v-1.41c0-3.84-1.98-5.88-9.88-5.88C5.27,24.28,1,26.09,1,30.1v0.73c0,3.5,1.72,5.09,8.16,6.5c2.04,0.45,2.74,0.51,2.74,1.75
	v0.73c0,0.73-0.19,1.02-0.96,1.02c-0.89,0-0.96-0.51-0.96-1.07v-1.92H1v0.9c0,4.75,2.99,6.16,10.2,6.16c6.82,0,10.01-1.3,10.01-5.93
	V37.9C21.2,34.62,19.23,33.27,13.04,31.97L13.04,31.97L13.04,31.97z M32.54,28.29H21.77v18.59h7.9v-2.71h2.49
	c3.31,0,6.88-0.79,6.88-4.75v-6.44C39.04,28.97,35.91,28.29,32.54,28.29L32.54,28.29L32.54,28.29z M31.2,40.16
	c0,0.34-0.38,0.68-0.89,0.68h-0.64v-9.21h0.64c0.51,0,0.89,0.34,0.89,0.68V40.16L31.2,40.16z M48.33,28.01
	c-5.03,0-8.73,1.3-8.73,5.31v5.76c0,3.96,3.7,5.31,8.73,5.31c4.91,0,8.67-1.36,8.67-5.31v-5.76C57,29.31,53.24,28.01,48.33,28.01
	L48.33,28.01L48.33,28.01z M49.16,40.33c0,0.4-0.45,0.68-0.83,0.68c-0.38,0-0.76-0.28-0.76-0.68v-8.25c0-0.34,0.38-0.62,0.76-0.62
	c0.38,0,0.83,0.28,0.83,0.62V40.33L49.16,40.33z M65.53,30.04v-1.75h-7.9v15.88h7.9v-8.42c0-1.3,0.89-2.09,2.42-2.09h1.53v-5.59
	C68.4,28.07,66.36,28.46,65.53,30.04L65.53,30.04L65.53,30.04z M77.88,38.8v-5.42h2.55v-5.09h-2.55v-2.26h-7.9v13.84
	c0,3.05,1.98,4.29,6.05,4.29h4.46v-4.63h-1.53C78.08,39.54,77.88,39.31,77.88,38.8L77.88,38.8L77.88,38.8z M90.88,34.06
	c-1.59-0.4-2.29-0.57-2.29-1.3v-0.73c0-0.4,0.38-0.57,0.7-0.57c0.45,0,0.76,0.17,0.76,0.57v1.64h7.26v-1.24
	c0-3.33-3.31-4.41-8.09-4.41c-4.52,0-8.48,1.07-8.48,4.46v0.62c0,1.98,0.7,3.67,7.01,5.26c1.53,0.4,2.29,0.62,2.29,1.36v0.79
	c0,0.4-0.32,0.51-0.76,0.51c-0.32,0-0.7-0.17-0.7-0.57v-1.58h-7.84v0.85c0,3.28,2.17,4.75,8.54,4.75c4.91,0,8.41-0.96,8.41-5.2
	v-0.68C97.7,36.54,96.68,35.47,90.88,34.06L90.88,34.06L90.88,34.06z M102.35,44.01h8.73V21.52h-8.73V44.01L102.35,44.01z
	 M111.96,44.01h7.97V24.74h-7.97V44.01L111.96,44.01z M120.86,44.01h7.97V24.74h-7.97V44.01L120.86,44.01z M139.01,40.45h-0.83
	c-0.51,0-0.64-0.23-0.64-0.68V28.13h-7.9v11.19c0,3.11,2.36,4.69,6.18,4.69h11.09V28.13h-7.9V40.45L139.01,40.45z M157.42,33.95
	c-1.59-0.4-2.29-0.56-2.29-1.3v-0.73c0-0.4,0.38-0.56,0.7-0.56c0.45,0,0.76,0.17,0.76,0.56v1.64h7.52v-1.3
	c0-3.33-3.51-4.35-8.28-4.35c-0.22,0-0.44,0-0.66,0.01c-1.56,0.04-3.04,0.2-4.29,0.56c-2.14,0.62-3.6,1.8-3.6,3.84v0.68
	c0,1.98,0.64,3.67,6.95,5.26c1.53,0.4,2.29,0.62,2.29,1.36v0.79c0,0.4-0.32,0.51-0.76,0.51c-0.32,0-0.7-0.17-0.7-0.56v-1.58h-7.84
	v0.85c0,3.28,2.17,4.75,8.54,4.75c4.91,0,8.48-0.96,8.48-5.2v-0.68C164.24,36.43,163.22,35.36,157.42,33.95L157.42,33.95
	L157.42,33.95z M172.45,25.87h-7.9v13.79c0,3.16,1.98,4.35,6.05,4.35h4.33v-4.63h-1.47c-0.76,0-1.02-0.23-1.02-0.68V33.1h2.49v-4.97
	h-2.49V25.87L172.45,25.87z M193.98,27.85h-5.16c-2.8,0-4.52,1.13-5.42,2.94v-2.66h-7.9v15.88h7.97v-8.64c0-1.3,0.96-2.09,2.42-2.09
	h6.56v-2.26h0.7c0.51,0,0.83,0.28,0.83,0.73v2.09h-3.06c-2.93,0-6.69,0.96-6.69,4.63v0.85c0,3.67,3.38,4.69,6.31,4.69h11.34V32.99
	C201.89,29.82,200.55,27.85,193.98,27.85L193.98,27.85L193.98,27.85z M193.98,40.56h-0.51c-0.89,0-1.02-0.23-1.02-0.68v-1.92
	c0-0.57,0.32-0.9,1.08-0.9h0.45V40.56L193.98,40.56z M210.42,25.87h-7.9v13.79c0,3.16,1.98,4.35,6.05,4.35h4.27v-4.63h-1.4
	c-0.83,0-1.02-0.23-1.02-0.68V33.1h2.42v-4.97h-2.42V25.87L210.42,25.87z M221.63,27.85c-4.97,0-8.6,1.3-8.6,5.31v5.65
	c0,4.07,3.63,5.42,8.6,5.42c4.97,0,8.67-1.24,8.67-5.31v-1.13h-7.9v2.37c0,0.4-0.32,0.56-0.76,0.56c-0.38,0-0.76-0.17-0.76-0.56
	v-3.05h9.43v-3.9C230.29,29.26,226.6,27.85,221.63,27.85L221.63,27.85L221.63,27.85z M222.45,33.61h-1.59v-1.86
	c0-0.4,0.38-0.68,0.76-0.68c0.51,0,0.83,0.28,0.83,0.68V33.61L222.45,33.61z M240.1,23.89v4.24h-2.74c-2.93,0-6.56,0.96-6.56,4.63
	v6.55c0,3.67,3.25,4.69,6.18,4.69H248V23.89H240.1L240.1,23.89z M240.1,40.67h-0.57c-0.64,0-0.83-0.23-0.83-0.62v-7.97
	c0-0.28,0.19-0.62,0.83-0.62h0.57V40.67L240.1,40.67z"/>
</svg>
